<svg width="512" height="512" viewBox="0 0 512 512" fill="none" xmlns="http://www.w3.org/2000/svg">
<rect width="512" height="512" fill="#19191E"/>
<rect x="120" y="176" width="113" height="20" rx="10" fill="#DC67E7"/>
<rect x="170" y="316" width="73" height="20" rx="10" fill="#DC67E7"/>
<rect x="253" y="316" width="115" height="20" rx="10" fill="white"/>
<rect x="170" y="281" width="134" height="20" rx="10" fill="#28B2FF"/>
<rect x="187" y="351" width="129" height="20" rx="10" fill="#28B2FF"/>
<rect x="243" y="176" width="163" height="20" rx="10" fill="#28B2FF"/>
<rect x="170" y="246" width="85" height="20" rx="10" fill="white"/>
<rect x="265" y="246" width="153" height="20" rx="10" fill="#E95454"/>
<rect x="170" y="211" width="167" height="20" rx="10" fill="#EF9A5C"/>
<rect x="119" y="141" width="129" height="20" rx="10" fill="white"/>
<rect x="259" y="141" width="57" height="20" rx="10" fill="white"/>
<rect x="120" y="351" width="57" height="20" rx="10" fill="white"/>
<line x1="125.5" y1="211" x2="125.5" y2="336" stroke="#767676"/>
</svg>
