<?xml version="1.0" encoding="utf-8"?>
<!-- Generator: Adobe Illustrator 24.1.1, SVG Export Plug-In . SVG Version: 6.00 Build 0)  -->
<svg version="1.1" id="Layer_1" xmlns="http://www.w3.org/2000/svg" xmlns:xlink="http://www.w3.org/1999/xlink" x="0px" y="0px"
	 viewBox="0 0 512 512" style="enable-background:new 0 0 512 512;" xml:space="preserve">
<g>
	<path d="M76.8,489.2h360.3l1.3,0c41.5-2.2,73.6-36.4,73.6-77.5l-0.1-4l0,0c-0.5-8.6-2.3-17.2-5.6-25.2l-1.5-3.1L323.7,62.5
		l-22.5,12.8l22.6-12.5c-14.2-25.6-40.7-40.1-67.9-40c-12.7,0-25.7,3.2-37.5,9.7l0,0c-12.7,7.1-23.2,17.5-30.3,30.3l22.6,12.5
		l-22.5-12.8L7.2,379.4l-1.5,3.1C1.9,392,0,401.9,0,411.7c0,30.6,18.3,59.6,48.4,71.9l0,0c8,3.3,16.5,5.1,25.2,5.6
		c14.3,0.7,26.4-10.2,27.2-24.5c0.7-14.3-10.2-26.4-24.5-27.2c-2.9-0.2-5.8-0.8-8.4-1.9l0,0c-10.1-4.1-16.1-13.8-16.1-24
		c0-3.2,0.6-6.5,1.9-9.7l-24-9.7L52.1,405L233.2,88.2l0.2-0.3c2.4-4.3,5.9-7.8,10.1-10.1l0,0c4-2.2,8.2-3.2,12.5-3.2
		c9.2,0,18,4.8,22.7,13.4l0.2,0.3L459.9,405l22.5-12.8l-24,9.7c1.1,2.7,1.7,5.5,1.9,8.4l0,0l0,1.4c0,13.6-10.7,25.1-24.5,25.8
		l1.3,25.8v-25.9H76.8c-14.3,0-25.9,11.6-25.9,25.9C50.9,477.6,62.5,489.2,76.8,489.2L76.8,489.2z"/>
</g>
</svg>
